<?xml version="1.0" encoding="utf-8"?>
<!-- Generator: Adobe Illustrator 21.1.0, SVG Export Plug-In . SVG Version: 6.00 Build 0)  -->
<svg version="1.1" id="Layer_1" xmlns="http://www.w3.org/2000/svg" xmlns:xlink="http://www.w3.org/1999/xlink" x="0px" y="0px"
	 viewBox="0 0 640 119" style="enable-background:new 0 0 640 119;" xml:space="preserve">
<style type="text/css">
	.st0{fill:#E02F2F;}
	.st1{fill:#FFFFFF;}
	.st2{fill:none;stroke:#1A1A1A;stroke-width:2;stroke-miterlimit:10;}
</style>
<g>
	<g>
		<path class="st0" d="M162.3,28.7c0,0-1.4-10.6-5.7-15.3c-5.5-6.1-11.6-6.2-14.4-6.5c-20.1-1.6-50.3-1.6-50.3-1.6h-0.1
			c0,0-30.2,0-50.3,1.6c-2.8,0.3-8.9,0.4-14.4,6.5c-4.3,4.7-5.7,15.3-5.7,15.3S20,41.1,20,53.6v11.7c0,12.5,1.4,25,1.4,25
			s1.4,10.6,5.7,15.3c5.5,6.1,12.6,6,15.8,6.6c11.5,1.2,48.9,1.6,48.9,1.6s30.2-0.1,50.3-1.6c2.8-0.4,8.9-0.4,14.4-6.5
			c4.3-4.7,5.7-15.3,5.7-15.3s1.4-12.5,1.4-25V53.6C163.7,41.1,162.3,28.7,162.3,28.7z"/>
		<polygon class="st1" points="73.9,32.4 73.9,86.6 118.8,59.5 		"/>
	</g>
	<g>
		<path class="st0" d="M177,38c0-1,0.3-1.9,0.9-2.6c0.6-0.7,1.5-1,2.7-1c1.2,0,2.1,0.3,2.8,1c0.6,0.7,0.9,1.5,0.9,2.6
			c0,1-0.3,1.9-0.9,2.5c-0.6,0.7-1.5,1-2.8,1c-1.2,0-2.1-0.3-2.7-1C177.4,39.9,177,39,177,38z M183.8,84.1h-6.2V47.7h6.2V84.1z"/>
		<path class="st0" d="M199.6,47.7l0.2,4.6c1.3-1.6,2.9-2.9,4.7-3.9c1.8-0.9,3.9-1.4,6.2-1.4c1.8,0,3.4,0.2,4.8,0.7
			c1.4,0.5,2.7,1.3,3.7,2.3c1,1.1,1.8,2.4,2.3,4.1c0.6,1.7,0.8,3.7,0.8,6.1v23.9h-6.2V60.2c0-1.4-0.2-2.6-0.5-3.6
			c-0.3-1-0.8-1.8-1.4-2.4c-0.6-0.6-1.4-1.1-2.3-1.4c-0.9-0.3-2-0.4-3.1-0.4c-2,0-3.8,0.5-5.3,1.6c-1.5,1.1-2.7,2.5-3.6,4.2v26h-6.2
			V47.7H199.6z"/>
		<path class="st0" d="M253,74.5c0-0.7-0.1-1.3-0.3-1.9c-0.2-0.6-0.6-1.2-1.2-1.7c-0.6-0.5-1.4-1-2.5-1.5c-1.1-0.4-2.5-0.9-4.3-1.2
			c-2-0.4-3.8-0.9-5.5-1.5c-1.6-0.6-3-1.3-4.1-2.1c-1.1-0.8-2-1.8-2.6-2.9c-0.6-1.1-0.9-2.4-0.9-3.9c0-1.4,0.3-2.8,1-4.1
			c0.6-1.3,1.5-2.4,2.7-3.4c1.2-1,2.6-1.8,4.2-2.3S243,47,245,47c2.2,0,4.1,0.3,5.8,0.9c1.7,0.6,3.2,1.4,4.4,2.4
			c1.2,1,2.1,2.2,2.7,3.6s0.9,2.9,0.9,4.4h-6.3c0-0.7-0.2-1.5-0.5-2.2c-0.3-0.8-0.8-1.4-1.5-2c-0.7-0.6-1.4-1.1-2.4-1.4
			c-0.9-0.4-2-0.6-3.3-0.6c-1.3,0-2.4,0.2-3.3,0.5c-0.9,0.3-1.7,0.7-2.2,1.2s-1,1.1-1.3,1.7c-0.3,0.6-0.4,1.3-0.4,2s0.1,1.3,0.3,1.8
			c0.2,0.5,0.7,1,1.3,1.5s1.5,0.8,2.6,1.2s2.5,0.7,4.2,1.1c2.2,0.5,4.2,1.1,5.8,1.8c1.6,0.7,3,1.4,4.1,2.3c1.1,0.9,1.9,1.9,2.4,3
			c0.5,1.1,0.8,2.4,0.8,3.9c0,1.6-0.3,3.1-1,4.4c-0.7,1.3-1.6,2.5-2.8,3.4c-1.2,0.9-2.7,1.7-4.4,2.2c-1.7,0.5-3.6,0.8-5.8,0.8
			c-2.4,0-4.6-0.3-6.4-1s-3.4-1.6-4.7-2.7c-1.3-1.1-2.2-2.4-2.9-3.8c-0.7-1.4-1-2.9-1-4.4h6.2c0.1,1.3,0.4,2.4,0.9,3.2
			c0.6,0.9,1.2,1.6,2.1,2.1c0.8,0.5,1.7,0.9,2.7,1.1c1,0.2,2,0.3,3,0.3c1.3,0,2.4-0.1,3.4-0.4s1.8-0.6,2.4-1.1
			c0.7-0.5,1.2-1,1.5-1.7C252.9,75.9,253,75.2,253,74.5z"/>
		<path class="st0" d="M275.8,38.9v8.8h6.8v4.8h-6.8v22.6c0,0.9,0.1,1.7,0.3,2.3s0.5,1,0.9,1.3c0.4,0.3,0.8,0.5,1.3,0.6
			c0.5,0.1,1,0.2,1.5,0.2s1.1-0.1,1.6-0.2c0.6-0.1,1-0.2,1.3-0.3v5.1c-0.5,0.1-1.1,0.3-1.9,0.4c-0.8,0.2-1.7,0.2-2.9,0.2
			c-1.1,0-2.2-0.2-3.3-0.5s-1.9-0.9-2.7-1.6c-0.8-0.8-1.4-1.8-1.8-3c-0.4-1.2-0.7-2.8-0.7-4.6V52.5H263v-4.8h6.6v-8.8H275.8z"/>
		<path class="st0" d="M312.4,84.1c-0.2-0.4-0.4-1-0.5-1.7c-0.1-0.7-0.2-1.4-0.3-2.1c-0.6,0.6-1.2,1.2-2,1.7c-0.7,0.6-1.5,1-2.4,1.4
			c-0.9,0.4-1.8,0.7-2.8,1s-2.1,0.4-3.2,0.4c-1.9,0-3.6-0.3-5.1-0.8c-1.5-0.6-2.8-1.3-3.9-2.3c-1.1-1-1.9-2.1-2.5-3.4
			c-0.6-1.3-0.9-2.7-0.9-4.2c0-2,0.4-3.7,1.1-5.2c0.8-1.5,1.9-2.7,3.3-3.8c1.4-1,3.1-1.8,5.2-2.3c2-0.5,4.3-0.8,6.8-0.8h6.2v-2.9
			c0-2.2-0.7-3.9-2-5.2c-1.3-1.3-3.2-1.9-5.8-1.9c-1.2,0-2.2,0.2-3.2,0.5c-1,0.3-1.8,0.7-2.5,1.3c-0.7,0.5-1.2,1.1-1.6,1.8
			c-0.4,0.7-0.6,1.4-0.6,2.2h-6.3c0-1.3,0.3-2.6,1-3.9s1.7-2.4,2.9-3.5c1.3-1,2.8-1.9,4.6-2.5c1.8-0.6,3.8-1,6-1
			c2,0,3.8,0.3,5.5,0.8c1.7,0.5,3.1,1.3,4.3,2.3c1.2,1,2.1,2.3,2.8,3.8c0.7,1.5,1,3.3,1,5.4v16.9c0,1.2,0.1,2.5,0.3,3.9
			c0.2,1.4,0.5,2.5,1,3.5v0.5H312.4z M302.1,79.4c1.1,0,2.2-0.2,3.2-0.5c1-0.3,1.9-0.7,2.7-1.2c0.8-0.5,1.5-1.1,2.1-1.7
			c0.6-0.7,1.1-1.3,1.4-2v-7.5h-5.2c-3.6,0-6.3,0.6-8.3,1.7c-1.9,1.1-2.9,2.8-2.9,5c0,0.9,0.1,1.7,0.4,2.5c0.3,0.8,0.7,1.4,1.3,2
			c0.6,0.6,1.3,1,2.2,1.3C299.9,79.2,300.9,79.4,302.1,79.4z"/>
		<path class="st0" d="M333.3,47.7l0.2,4.6c1.3-1.6,2.9-2.9,4.7-3.9c1.8-0.9,3.9-1.4,6.2-1.4c1.8,0,3.4,0.2,4.8,0.7
			c1.4,0.5,2.7,1.3,3.7,2.3c1,1.1,1.8,2.4,2.3,4.1c0.6,1.7,0.8,3.7,0.8,6.1v23.9h-6.2V60.2c0-1.4-0.2-2.6-0.5-3.6
			c-0.3-1-0.8-1.8-1.4-2.4c-0.6-0.6-1.4-1.1-2.3-1.4c-0.9-0.3-2-0.4-3.1-0.4c-2,0-3.8,0.5-5.3,1.6c-1.5,1.1-2.7,2.5-3.6,4.2v26h-6.2
			V47.7H333.3z"/>
		<path class="st0" d="M373.9,38.9v8.8h6.8v4.8h-6.8v22.6c0,0.9,0.1,1.7,0.3,2.3c0.2,0.6,0.5,1,0.9,1.3c0.4,0.3,0.8,0.5,1.3,0.6
			c0.5,0.1,1,0.2,1.5,0.2s1.1-0.1,1.6-0.2c0.6-0.1,1-0.2,1.3-0.3v5.1c-0.5,0.1-1.1,0.3-1.9,0.4c-0.8,0.2-1.7,0.2-2.9,0.2
			c-1.1,0-2.2-0.2-3.3-0.5s-1.9-0.9-2.7-1.6c-0.8-0.8-1.4-1.8-1.8-3c-0.4-1.2-0.7-2.8-0.7-4.6V52.5h-6.6v-4.8h6.6v-8.8H373.9z"/>
		<path class="st0" d="M426.3,74.5c0-0.7-0.1-1.3-0.3-1.9c-0.2-0.6-0.6-1.2-1.2-1.7c-0.6-0.5-1.4-1-2.5-1.5
			c-1.1-0.4-2.5-0.9-4.3-1.2c-2-0.4-3.8-0.9-5.5-1.5c-1.6-0.6-3-1.3-4.1-2.1c-1.1-0.8-2-1.8-2.6-2.9c-0.6-1.1-0.9-2.4-0.9-3.9
			c0-1.4,0.3-2.8,1-4.1c0.6-1.3,1.5-2.4,2.7-3.4c1.2-1,2.6-1.8,4.2-2.3c1.7-0.6,3.5-0.9,5.6-0.9c2.2,0,4.1,0.3,5.8,0.9
			c1.7,0.6,3.2,1.4,4.4,2.4c1.2,1,2.1,2.2,2.7,3.6s0.9,2.9,0.9,4.4H426c0-0.7-0.2-1.5-0.5-2.2c-0.3-0.8-0.8-1.4-1.5-2
			c-0.7-0.6-1.4-1.1-2.4-1.4c-0.9-0.4-2-0.6-3.3-0.6c-1.3,0-2.4,0.2-3.3,0.5c-0.9,0.3-1.7,0.7-2.2,1.2c-0.6,0.5-1,1.1-1.3,1.7
			c-0.3,0.6-0.4,1.3-0.4,2s0.1,1.3,0.3,1.8c0.2,0.5,0.7,1,1.3,1.5s1.5,0.8,2.6,1.2c1.1,0.4,2.5,0.7,4.2,1.1c2.2,0.5,4.2,1.1,5.8,1.8
			c1.6,0.7,3,1.4,4.1,2.3c1.1,0.9,1.9,1.9,2.4,3c0.5,1.1,0.8,2.4,0.8,3.9c0,1.6-0.3,3.1-1,4.4c-0.7,1.3-1.6,2.5-2.8,3.4
			c-1.2,0.9-2.7,1.7-4.4,2.2c-1.7,0.5-3.6,0.8-5.8,0.8c-2.4,0-4.6-0.3-6.4-1s-3.4-1.6-4.7-2.7s-2.2-2.4-2.9-3.8
			c-0.7-1.4-1-2.9-1-4.4h6.2c0.1,1.3,0.4,2.4,0.9,3.2c0.6,0.9,1.2,1.6,2.1,2.1s1.7,0.9,2.7,1.1c1,0.2,2,0.3,3,0.3
			c1.3,0,2.4-0.1,3.4-0.4c1-0.3,1.8-0.6,2.4-1.1c0.7-0.5,1.2-1,1.5-1.7C426.2,75.9,426.3,75.2,426.3,74.5z"/>
		<path class="st0" d="M455.8,84.8c-2.5,0-4.8-0.4-6.9-1.3s-3.8-2.1-5.3-3.7c-1.5-1.6-2.6-3.4-3.4-5.6c-0.8-2.2-1.2-4.5-1.2-7.1
			v-1.4c0-3,0.4-5.6,1.3-7.9c0.9-2.3,2.1-4.3,3.6-5.9c1.5-1.6,3.2-2.8,5.1-3.7c1.9-0.8,3.9-1.3,6-1.3c2.6,0,4.9,0.5,6.7,1.4
			c1.9,0.9,3.4,2.2,4.7,3.8c1.2,1.6,2.1,3.5,2.7,5.7c0.6,2.2,0.9,4.5,0.9,7.1v2.8h-24.7c0,1.7,0.3,3.3,0.8,4.7
			c0.5,1.5,1.2,2.7,2.2,3.8s2.1,1.9,3.4,2.6c1.3,0.6,2.8,0.9,4.5,0.9c2.2,0,4.1-0.4,5.6-1.3c1.5-0.9,2.9-2.1,4-3.6l3.8,3
			c-0.6,0.9-1.3,1.8-2.1,2.6c-0.8,0.8-1.8,1.6-2.9,2.3c-1.1,0.7-2.4,1.2-3.8,1.6C459.2,84.6,457.6,84.8,455.8,84.8z M455,52.1
			c-1.3,0-2.4,0.2-3.5,0.7c-1.1,0.5-2,1.1-2.8,2c-0.8,0.9-1.5,2-2.1,3.3c-0.6,1.3-0.9,2.8-1.1,4.5h18.3v-0.5
			c-0.1-1.2-0.3-2.4-0.6-3.6c-0.3-1.2-0.8-2.3-1.5-3.2c-0.7-0.9-1.6-1.7-2.6-2.3C457.9,52.4,456.6,52.1,455,52.1z"/>
		<path class="st0" d="M499.7,84.1c-0.2-0.4-0.4-1-0.5-1.7c-0.1-0.7-0.2-1.4-0.3-2.1c-0.6,0.6-1.2,1.2-2,1.7c-0.7,0.6-1.5,1-2.4,1.4
			c-0.9,0.4-1.8,0.7-2.8,1s-2.1,0.4-3.2,0.4c-1.9,0-3.6-0.3-5.1-0.8c-1.5-0.6-2.8-1.3-3.9-2.3c-1.1-1-1.9-2.1-2.5-3.4
			c-0.6-1.3-0.9-2.7-0.9-4.2c0-2,0.4-3.7,1.1-5.2c0.8-1.5,1.9-2.7,3.3-3.8c1.4-1,3.1-1.8,5.2-2.3c2-0.5,4.3-0.8,6.8-0.8h6.2v-2.9
			c0-2.2-0.7-3.9-2-5.2c-1.3-1.3-3.2-1.9-5.8-1.9c-1.2,0-2.2,0.2-3.2,0.5c-1,0.3-1.8,0.7-2.5,1.3c-0.7,0.5-1.2,1.1-1.6,1.8
			c-0.4,0.7-0.6,1.4-0.6,2.2h-6.3c0-1.3,0.3-2.6,1-3.9s1.7-2.4,2.9-3.5c1.3-1,2.8-1.9,4.6-2.5c1.8-0.6,3.8-1,6-1
			c2,0,3.8,0.3,5.5,0.8c1.7,0.5,3.1,1.3,4.3,2.3c1.2,1,2.1,2.3,2.8,3.8c0.7,1.5,1,3.3,1,5.4v16.9c0,1.2,0.1,2.5,0.3,3.9
			c0.2,1.4,0.5,2.5,1,3.5v0.5H499.7z M489.4,79.4c1.1,0,2.2-0.2,3.2-0.5c1-0.3,1.9-0.7,2.7-1.2c0.8-0.5,1.5-1.1,2.1-1.7
			c0.6-0.7,1.1-1.3,1.4-2v-7.5h-5.2c-3.6,0-6.3,0.6-8.3,1.7c-1.9,1.1-2.9,2.8-2.9,5c0,0.9,0.1,1.7,0.4,2.5c0.3,0.8,0.7,1.4,1.3,2
			c0.6,0.6,1.3,1,2.2,1.3C487.2,79.2,488.2,79.4,489.4,79.4z"/>
		<path class="st0" d="M532.4,53.3c-0.5-0.1-1-0.2-1.5-0.2c-0.5,0-1-0.1-1.6-0.1c-2.2,0-3.9,0.5-5.3,1.4c-1.4,0.9-2.4,2.2-3,3.8
			v25.9h-6.2V47.7h6.1l0.1,4.2c0.9-1.5,2.1-2.7,3.5-3.6c1.4-0.9,3.1-1.3,5.2-1.3c0.4,0,1,0.1,1.5,0.2s1,0.2,1.2,0.3V53.3z"/>
		<path class="st0" d="M552.1,79.7c1.1,0,2.2-0.2,3.2-0.5c1-0.4,1.9-0.9,2.7-1.5c0.8-0.6,1.4-1.4,1.9-2.2c0.5-0.9,0.8-1.8,0.9-2.8
			h5.9c-0.1,1.6-0.5,3.2-1.3,4.6c-0.8,1.5-1.8,2.8-3.1,3.9s-2.8,2-4.5,2.7c-1.7,0.7-3.5,1-5.5,1c-2.7,0-5.1-0.5-7.2-1.5
			s-3.7-2.3-5.1-4c-1.3-1.7-2.4-3.6-3-5.8c-0.7-2.2-1-4.5-1-7v-1.4c0-2.4,0.3-4.8,1-7c0.7-2.2,1.7-4.1,3-5.8c1.3-1.7,3-3,5.1-4
			c2-1,4.4-1.5,7.1-1.5c2.1,0,4.1,0.3,5.8,1c1.7,0.7,3.2,1.6,4.5,2.8c1.3,1.2,2.3,2.6,3,4.2c0.7,1.6,1.1,3.4,1.2,5.2h-5.9
			c-0.1-1.1-0.4-2.2-0.8-3.1c-0.4-1-1-1.8-1.8-2.6c-0.7-0.7-1.6-1.3-2.6-1.7c-1-0.4-2.2-0.6-3.4-0.6c-1.9,0-3.5,0.4-4.8,1.1
			c-1.3,0.8-2.3,1.8-3.1,3c-0.8,1.2-1.3,2.6-1.6,4.2c-0.3,1.6-0.5,3.1-0.5,4.7v1.4c0,1.6,0.2,3.2,0.5,4.8c0.3,1.6,0.9,3,1.6,4.2
			c0.8,1.2,1.8,2.2,3.1,3C548.5,79.3,550.1,79.7,552.1,79.7z"/>
		<path class="st0" d="M579.8,52.1c1.3-1.6,2.9-2.8,4.7-3.7c1.8-0.9,3.9-1.3,6.1-1.3c1.8,0,3.4,0.2,4.8,0.7c1.4,0.5,2.7,1.3,3.7,2.3
			c1,1.1,1.8,2.4,2.3,4.1c0.6,1.7,0.8,3.7,0.8,6.1v23.9H596V60.2c0-1.4-0.2-2.6-0.5-3.6c-0.3-1-0.8-1.8-1.4-2.4
			c-0.6-0.6-1.4-1.1-2.3-1.4c-0.9-0.3-2-0.4-3.1-0.4c-2,0-3.8,0.5-5.3,1.6c-1.5,1.1-2.7,2.5-3.6,4.2v26h-6.2V32.4h6.2V52.1z"/>
	</g>
	<line class="st2" x1="620" y1="36.3" x2="620" y2="87.6"/>
</g>
</svg>
